# xmcd
#
# Track frame offsets:
#	150
#	37553
#	47456
#	50627
#	58249
#	76666
#	84861
#	102562
#	115100
#	122749
#	129010
#	140913
#	150576
#	164361
#	261170
#	269516
#	283040
#	293781
#
# Disc length: 4294 seconds
#
# Revision: 0
# Processed by: cddbd v1.5.2PL0 Copyright (c) Steve Scherf et al.
# Submitted via: EasyCDDAExtractor 16.0.6.1
#
DISCID=f610c412
DTITLE=Ταλιαδώρος Χαρίλαος ΑΠ - Ύμνοι της Μεγάλης Εβδομάδος-Χ. Ταλιαδώρος
DYEAR=2004
DGENRE=Βυζ. Εκκλησιαστική
TTITLE0=Ιδού ο Νυμφίος
TTITLE1=Τα πάθη τα σεπτά
TTITLE2=Τω την άβατον
TTITLE3=Τον Νυμφώνα σου βλέπω
TTITLE4=Ιδιόμελα αίνων Μ. Δευτέρας 1
TTITLE5=Ιδιόμελα αίνων Μ. Δευτέρας 2
TTITLE6=Ιδιόμελα αίνων Μ. Δευτέρας 3
TTITLE7=Πόρνη προσήλθε σοι
TTITLE8=Ιδιόμελα αίνων Μ. Τρίτης 1
TTITLE9=Ιδιόμελα αίνων Μ. Τρίτης 2
TTITLE10=Ιδιόμελα αίνων Μ. Τρίτης 3
TTITLE11=Ιδιόμελα αίνων Μ. Τρίτης 4
TTITLE12=Η αμαρτωλός
TTITLE13=Κασσιανή [Π. Λαμπαδαρίου]
TTITLE14=Δύο και πονηρά
TTITLE15=Εξέδυσάν με [Δοξαστικό]
TTITLE16=Επί ξύλου βλέπουσα
TTITLE17=Σε τον αναβαλλόμενον
EXTD=
EXTT0=
EXTT1=
EXTT2=
EXTT3=
EXTT4=
EXTT5=
EXTT6=
EXTT7=
EXTT8=
EXTT9=
EXTT10=
EXTT11=
EXTT12=
EXTT13=
EXTT14=
EXTT15=
EXTT16=
EXTT17=
PLAYORDER=
